<?xml version="1.0" encoding="utf-8"?>
<!-- Generator: Adobe Illustrator 27.0.0, SVG Export Plug-In . SVG Version: 6.00 Build 0)  -->
<svg version="1.1" id="參考" xmlns="http://www.w3.org/2000/svg" xmlns:xlink="http://www.w3.org/1999/xlink" x="0px" y="0px"
	 viewBox="0 0 640 480" style="enable-background:new 0 0 640 480;" xml:space="preserve">
<style type="text/css">
	.st0{fill:#DEDEDE;}
	.st1{fill:#08083A;}
	.st2{fill:#FF017B;}
	.st3{fill:#F7931E;}
	.st4{fill:#009245;}
	.st5{fill:#FF0000;}
	.st6{fill:#0000FF;}
</style>
<path class="st0" d="M550.75,246.85c0,27.64-18.37,50.12-41.25,50.85c-0.37,0-0.75,0.01-1.13,0.01h-316.8
	c-23.41,0-42.39-22.77-42.39-50.86c0-28.09,18.97-50.87,42.39-50.87h316.8c0.38,0,0.76,0.01,1.13,0.01
	C532.38,196.72,550.75,219.2,550.75,246.85z"/>
<g>
	<path id="X" class="st1" d="M506.93,286.56c3.06-4.38,6.04-8.77,9.19-13.04c0.57-0.77,1.81-1.39,2.78-1.45
		c3.15-0.18,6.32-0.07,10.04-0.07c-5.2,6.6-10.14,12.88-15.15,19.25c5.09,6.42,10.1,12.73,15.49,19.53c-4.38,0-8.29,0.02-12.2-0.04
		c-0.36-0.01-0.79-0.54-1.05-0.92c-3.18-4.55-6.33-9.11-9.47-13.64c-2.93,4.17-6.02,8.44-8.96,12.82c-0.95,1.41-1.99,1.93-3.67,1.86
		c-3.24-0.13-6.49-0.04-10.32-0.04c5.48-6.62,10.68-12.91,16.05-19.39c-4.84-6.35-9.65-12.66-14.82-19.45
		c4.44,0,8.38-0.07,12.32,0.07c0.59,0.02,1.29,0.89,1.69,1.53C501.59,277.91,504.28,282.28,506.93,286.56z"/>
	<path id="B_00000140708236831061316130000009314091185410389122_" class="st1" d="M403.74,271.52c8.86,0.48,17.55,0.84,26.22,1.52
		c1.87,0.15,3.82,1.23,5.41,2.34c3.95,2.75,4.23,7.71,0.61,10.88c-1.65,1.45-3.72,2.41-5.81,3.72c0.56,0.18,1.11,0.37,1.67,0.52
		c5.35,1.44,8.43,4.48,8.58,8.47c0.18,4.56-3.04,8.78-8.26,10.27c-2.85,0.81-5.86,1.37-8.82,1.47c-6.47,0.22-12.95,0.07-19.61,0.07
		C403.74,297.87,403.74,285.12,403.74,271.52z M414.27,293.77c0,3.64-0.05,6.69,0.05,9.74c0.01,0.42,0.77,1.18,1.17,1.17
		c3.14-0.08,6.33-0.02,9.41-0.57c3-0.54,4.43-2.54,4.39-4.95c-0.03-2.34-1.67-4.23-4.69-4.67
		C421.34,294.02,418.02,294.01,414.27,293.77z M414.45,288.31c3.62-0.55,6.9-0.82,10.05-1.61c1.89-0.48,2.84-2.26,2.69-4.31
		c-0.15-2.01-1.45-3.26-3.3-3.54c-3.06-0.45-6.17-0.59-9.43-0.88C414.45,281.55,414.45,284.5,414.45,288.31z"/>
	<path id="B" class="st1" d="M464.91,311.74c-5.76-0.23-11.19-1.35-15.94-4.64c-12.11-8.38-10.74-25.72,2.66-32.6
		c7.71-3.95,15.92-4.17,24.06-1.61c9.45,2.98,14.13,9.88,13.82,19.51c-0.27,8.34-6.3,15.52-15.27,17.83
		C471.2,311.01,468.03,311.25,464.91,311.74z M465.26,304.41c8.12-0.03,13.3-4.95,13.3-12.63c-0.01-8.22-5.13-13.38-13.21-13.28
		c-8.05,0.1-13.36,5.25-13.36,12.98C451.99,299.37,457.19,304.44,465.26,304.41z"/>
	<path id="E" class="st1" d="M398.31,272.14c0,2.17,0,4.22,0,6.63c-5.83,0-11.68,0-17.67,0c0,3.15,0,5.95,0,9.05
		c5.34,0,10.7,0,16.24,0c0,2.41,0,4.51,0,6.92c-5.43,0-10.8,0-16.28,0c0,3.17,0,6.04,0,9.24c6.25,0,12.44,0,18.75,0
		c0,2.37,0,4.42,0,6.65c-9.7,0-19.39,0-29.27,0c0-12.81,0-25.57,0-38.5C379.47,272.14,388.83,272.14,398.31,272.14z"/>
	<path id="M" class="st1" d="M365.16,271.77c-0.38,12.94-0.75,25.37-1.12,37.97c-3.25,0-6.45,0-9.73,0c0-8.32,0-16.65,0-25.65
		c-0.48,1.33-0.78,2.12-1.05,2.93c-2.3,6.94-4.64,13.86-6.85,20.83c-0.53,1.66-1.36,2.35-3.04,2.06c-0.16-0.03-0.33,0-0.5-0.01
		c-2.47-0.12-5.67,0.66-7.19-0.6c-1.55-1.28-1.47-4.55-2.05-6.96c-1.33-5.49-2.62-10.99-3.94-16.48c-0.06-0.23-0.2-0.44-0.73-0.7
		c-0.3,3.62-0.64,7.24-0.88,10.87c-0.26,3.9-0.47,7.8-0.59,11.7c-0.04,1.52-0.41,2.29-2.13,2.2c-2.47-0.13-4.96-0.03-7.74-0.03
		c0.16-1.63,0.3-3,0.41-4.36c0.84-10.35,1.72-20.7,2.45-31.05c0.15-2.12,0.76-2.9,2.97-2.77c3.4,0.19,6.83,0.16,10.24,0.01
		c1.91-0.08,2.69,0.42,3.12,2.44c1.43,6.72,3.15,13.37,4.87,20.47c1.51-4.47,2.87-8.53,4.26-12.58c0.97-2.83,1.89-5.67,2.98-8.46
		c0.28-0.71,1.07-1.73,1.64-1.75C355.37,271.71,360.17,271.77,365.16,271.77z"/>
	<path id="A" class="st1" d="M266.53,309.91c4.42-8.37,8.58-16.22,12.71-24.08c2.13-4.05,4.26-8.09,6.28-12.19
		c0.68-1.38,1.51-1.96,3.08-1.91c3.5,0.11,7-0.06,10.49,0.1c0.85,0.04,2.16,0.71,2.42,1.4c4.46,11.91,8.78,23.86,13.13,35.81
		c0.05,0.14-0.01,0.32-0.03,0.84c-3.76,0-7.55,0.06-11.33-0.08c-0.5-0.02-1.17-0.99-1.42-1.66c-0.9-2.41-1.71-4.86-2.46-7.32
		c-0.4-1.31-1.12-1.84-2.53-1.8c-3.5,0.09-7-0.09-10.49,0.11c-0.91,0.05-2.12,0.86-2.58,1.67c-1.34,2.38-2.31,4.97-3.57,7.41
		c-0.36,0.69-1.19,1.59-1.84,1.61C274.59,309.99,270.78,309.91,266.53,309.91z M296.6,290.76c-1.13-3.44-2.17-6.58-3.44-10.45
		c-1.84,3.85-3.34,6.98-4.99,10.45C291.15,290.76,293.66,290.76,296.6,290.76z"/>
	<path id="_x2D_" class="st2" d="M259.61,254.97c-17.83,0-35.67,0.02-53.5-0.01c-4.46-0.01-7.87-2.01-10.01-5.91
		c-2.1-3.82-1.94-7.68,0.35-11.37c2.08-3.35,5.2-5.1,9.13-5.27c2.5-0.11,5-0.04,7.5-0.04c32.92,0,65.83,0.02,98.75-0.03
		c4.69-0.01,8.54,1.4,11.04,5.5c4.41,7.23-0.53,16.57-9.01,17.11c-0.75,0.05-1.5,0.03-2.25,0.03c-17.33,0-34.67,0-52,0
		C259.61,254.97,259.61,254.97,259.61,254.97z"/>
	<path id="G" class="st1" d="M281.4,215.98c-2.88,0-5.19,0-7.5,0c-7.33,0-14.67-0.05-22,0.04c-1.63,0.02-2.54-0.51-3.35-1.93
		c-5.59-9.83-11.33-19.58-16.89-29.42c-1.76-3.11-4.17-4.45-7.71-4.44c-20,0.06-40,0.06-59.99,0c-3.53-0.01-5.95,1.28-7.73,4.39
		c-9.72,16.95-19.55,33.84-29.35,50.75c-2.2,3.8-2.14,7.55,0.06,11.34c9.52,16.4,19.03,32.8,28.52,49.21c2.2,3.8,5.4,5.71,9.82,5.7
		c19.08-0.02,38.16-0.03,57.24,0c4.65,0.01,7.85-2.1,10.1-6.08c4.63-8.18,9.35-16.3,14.1-24.41c0.43-0.74,1.4-1.66,2.13-1.66
		c9.99-0.11,19.98-0.07,30.39-0.07c-0.4,0.91-0.62,1.57-0.96,2.15c-7.51,12.95-14.87,25.98-22.58,38.81
		c-7.07,11.77-17.7,18.31-31.48,18.54c-20.16,0.35-40.33,0.35-60.49,0.01c-13.88-0.23-24.59-6.79-31.65-18.69
		c-9.85-16.59-19.48-33.3-29.03-50.07c-7.21-12.66-7.26-25.56-0.06-38.24c9.49-16.7,19.1-33.33,28.87-49.88
		c7.4-12.54,18.61-19,33.21-19.12c19.25-0.15,38.5-0.16,57.74,0c14.58,0.13,25.77,6.6,33.19,19.14
		c8.09,13.67,15.98,27.45,23.95,41.19C280.39,213.95,280.74,214.69,281.4,215.98z"/>
</g>
<g>
	<path id="left" class="st3" d="M462.29,238.87c4.14,0.01,7.63,3.48,7.65,7.6c0.02,4.27-3.52,7.74-7.8,7.67
		c-4.2-0.07-7.55-3.51-7.5-7.7C454.67,242.26,458.12,238.86,462.29,238.87z"/>
	<path id="right" class="st4" d="M434.86,232.57c4.14,0.01,7.63,3.48,7.65,7.6c0.02,4.27-3.52,7.74-7.8,7.67
		c-4.2-0.07-7.55-3.51-7.5-7.7C427.25,235.97,430.7,232.56,434.86,232.57z"/>
	<path id="bottom" class="st5" d="M453.18,257.43c0.03,4.15-3.24,7.43-7.41,7.42c-4.16-0.01-7.45-3.31-7.4-7.44
		c0.04-4.01,3.3-7.29,7.29-7.34C449.78,250.02,453.15,253.33,453.18,257.43z"/>
	<path id="up" class="st6" d="M445.29,229.16c0.04-4.02,2.89-6.74,7.03-6.7c3.89,0.04,6.77,2.9,6.8,6.75
		c0.03,4.02-3.11,7.15-7.1,7.08C448.08,236.22,445.25,233.22,445.29,229.16z"/>
</g>
</svg>
